<svg xmlns="http://www.w3.org/2000/svg" xmlns:xlink="http://www.w3.org/1999/xlink" viewBox="0 0 240.5 60.9"><g fill-rule="evenodd"><path fill="#0b225c" d="M3.2 44.1c0 7.3 5.9 10.2 12.4 10.2 6.3 0 12.5-2.3 12.5-9.6 0-5.2-4.2-7.1-8.3-8.3-4.2-1.2-8.3-1.5-8.3-3.8 0-1.9 2-2.4 3.6-2.4 2.2 0 4.7.9 4.6 3.4h7.5c0-6.4-5.8-9.2-11.5-9.2C10.3 24.5 4 27 4 33.2c0 5.3 4.3 7.1 8.4 8.3s8.2 1.6 8.2 4.2c0 2.1-2.3 2.9-4.6 2.9-3.2 0-5.3-1.1-5.4-4.4H3.2v-.1zm27.1-.7c0 6.3 4.5 11 10.9 11 6.5 0 11-4.7 11-11s-4.5-11-11-11c-6.4-.1-10.9 4.7-10.9 11zm6.8 0c0-2.6 1-5.8 4.1-5.8 3.2 0 4.2 3.2 4.2 5.8 0 2.7-1 5.8-4.2 5.8-3.1-.1-4.1-3.1-4.1-5.8zm20.2 10.4h6.8V37.4h4.1V33h-4.1v-1c0-1.9 1-2.1 2.5-2.1.6 0 1.2 0 1.8.1v-4.8c-1.1 0-2.2-.1-3.3-.1-5.8 0-7.9 1.8-7.9 7.8H54v4.4h3.3v16.5zM83.2 33v4.4H79v9.5c0 1.6 1 2 2.4 2 .6 0 1.2-.1 1.8-.1v5c-1.2 0-2.5.2-3.7.2-5.8 0-7.3-1.7-7.3-7.3v-9.3h-4V33h4v-6.3H79V33h4.2zm24 12c.3-7.1-3.4-12.7-10.9-12.7-6.1 0-11.2 4.6-11.2 10.9 0 7 4.6 11.1 11.4 11.1 4.6 0 9.1-2.1 10.3-6.9h-6.4c-.6 1.6-2.2 2.3-3.9 2.3-2.9 0-4.5-1.8-4.6-4.7h15.3zm-15.3-3.8c.4-2.6 2-4.2 4.4-4.2 2.3 0 3.9 1.9 4 4.2h-8.4zm39.3-8.2h-6.5v2.4h-.1c-1.4-2-3.3-3-5.7-3-6.5 0-9.3 5.6-9.3 11.5 0 5.4 2.9 10.5 8.8 10.5 2.5 0 4.5-1 5.9-2.9h.1v9.3h6.8V33zm-14.8 10.6c0-2.8 1.1-6 4.2-6 3.2 0 4 3.2 4 6 0 4.3-2.4 5.6-4.2 5.6-3-.1-4-3-4-5.6zm32.4 10.2h20.8v-6.4h-13.3V25.1h-7.5v28.7zm30.3-14.4c.3-1.7 1.4-2.6 3.4-2.6 1.4 0 3.3.6 3.3 2.2 0 1.3-.6 1.6-1.8 1.9-4.7 1-12.1.5-12.1 7.2 0 4.3 3.1 6.3 7.1 6.3 2.5 0 5.1-.7 6.9-2.6.1.7.1 1.3.4 2h6.9c-.8-1.6-.8-3.6-.8-5.3v-9.1c0-5.9-4.8-7-9.7-7-2.4 0-4.7.4-6.6 1.4-1.9 1.1-3.1 2.8-3.2 5.6h6.2zm-.4 8.4c0-1.6 1.2-2.3 2.8-2.6 1.5-.4 3.2-.5 4.2-1.1.2 4.3-.9 6.1-4.2 6.1-1.5-.1-2.8-.7-2.8-2.4zm28.8-10.2c3 0 4 2.9 4 5.6 0 2.8-1.1 6-4.1 6-3.1 0-4.1-2.4-4.1-6 0-4.4 2.4-5.6 4.2-5.6zm-10.8 16.2h6.5v-2.4h.1c1.4 2 3.3 3 5.7 3 6.5 0 9.3-5.6 9.3-11.5 0-5.4-2.9-10.5-8.8-10.5-2.6 0-4.5 1-5.9 2.9h-.1V25.1h-6.8v28.7z"/><g fill="#00aeef"><path d="M219.9 7.8l4.5-7.8h9.5l4.7 8.2-4.7 8.2h-9.5l-4.7-8.2.2-.4zm3.5-2.9l-1.9 3.3 3.8 6.6h7.7l3.8-6.6-1.8-3.3-2-3.4h-7.7l-1.9 3.4z"/><use xlink:href="#B"/></g><use xlink:href="#B" x="15.5" y="9" fill="#0b225c"/></g><defs ><path id="B" d="M204.4 16.8l4.5-7.8h9.5l4.7 8.2-4.7 8.2h-9.5l-4.7-8.2.2-.4zm3.5-3l-1.9 3.3 3.8 6.6h7.7l3.8-6.6-3.8-6.6h-7.7l-1.9 3.3z"/></defs></svg>