<?xml version="1.0" standalone="no"?>
<!DOCTYPE svg PUBLIC "-//W3C//DTD SVG 20010904//EN"
 "http://www.w3.org/TR/2001/REC-SVG-20010904/DTD/svg10.dtd">
<svg version="1.0" xmlns="http://www.w3.org/2000/svg"
 width="512.000000pt" height="512.000000pt" viewBox="0 0 512.000000 512.000000"
 preserveAspectRatio="xMidYMid meet">
<metadata>
Created by potrace 1.11, written by Peter Selinger 2001-2013
</metadata>
<g transform="translate(0.000000,512.000000) scale(0.100000,-0.100000)"
fill="#000000" stroke="none">
<path d="M3041 4880 c-72 -6 -62 4 -146 -147 -15 -26 -51 -88 -80 -138 -67
-114 -190 -326 -223 -385 -14 -25 -74 -129 -133 -232 l-109 -186 91 -159 c50
-87 103 -178 116 -203 14 -25 40 -70 58 -100 36 -60 189 -326 310 -538 26 -45
51 -85 56 -88 11 -6 1247 -6 1258 1 5 2 30 42 56 87 68 120 76 133 203 353 64
110 173 300 244 423 l128 222 -246 428 c-136 235 -257 444 -270 464 -13 21
-24 40 -24 43 0 2 -18 34 -40 70 -22 36 -40 70 -40 75 0 6 -15 10 -32 10 -266
4 -1129 4 -1177 0z m1231 -385 c71 -121 138 -238 150 -261 13 -22 75 -130 138
-239 63 -109 114 -204 113 -210 -2 -6 -49 -91 -105 -188 -57 -98 -111 -192
-121 -210 -11 -18 -80 -138 -154 -267 -75 -129 -141 -240 -148 -245 -17 -14
-1060 -14 -1073 0 -7 8 -230 390 -371 638 -10 18 -45 77 -77 132 -31 55 -63
110 -70 123 -11 21 -5 36 58 145 39 67 78 136 88 153 10 16 85 147 167 290 83
142 158 274 167 292 38 73 -7 68 581 67 l530 0 127 -220z"/>
<path d="M860 3620 l-44 -5 -73 -125 c-40 -69 -76 -132 -80 -140 -8 -17 -118
-207 -133 -230 -6 -8 -13 -22 -17 -30 -4 -8 -27 -49 -51 -90 -25 -41 -53 -88
-62 -105 -9 -16 -60 -106 -114 -198 l-96 -168 89 -153 c49 -84 99 -171 111
-192 80 -143 416 -721 425 -732 10 -11 132 -14 637 -15 l625 -2 35 60 c42 72
365 631 502 868 l97 169 -20 31 c-10 18 -28 48 -39 67 -10 19 -102 177 -202
350 -101 173 -188 324 -194 335 -6 11 -41 71 -76 133 -36 62 -71 124 -78 138
-8 14 -19 27 -26 30 -16 6 -1161 10 -1216 4z m1117 -169 c6 0 42 -54 79 -118
37 -65 115 -199 172 -298 58 -99 116 -200 130 -225 14 -25 50 -88 80 -140 87
-151 83 -138 62 -174 -21 -36 -171 -297 -255 -441 -32 -55 -79 -136 -105 -180
-25 -44 -62 -107 -80 -140 -18 -33 -43 -76 -55 -95 l-22 -36 -529 2 c-291 1
-532 2 -536 3 -5 1 -140 230 -265 451 -11 19 -69 118 -128 220 -59 102 -115
200 -125 218 l-18 34 90 156 c50 86 151 263 226 392 74 129 148 258 165 285
17 28 36 59 42 70 12 20 22 20 536 19 288 -1 529 -2 536 -3z"/>
<path d="M3011 2400 c-33 -5 -40 -13 -159 -220 -68 -118 -176 -305 -240 -415
-63 -110 -148 -257 -188 -327 l-74 -127 40 -70 c70 -124 76 -134 162 -281 46
-80 89 -154 96 -165 6 -11 31 -54 55 -95 24 -41 47 -82 50 -90 4 -8 17 -31 30
-51 12 -20 60 -102 106 -183 46 -80 87 -148 92 -151 4 -3 288 -6 631 -6 l622
0 18 23 c9 13 23 34 30 48 7 14 27 49 45 78 18 29 33 54 33 56 0 3 29 53 63
113 35 59 150 257 256 440 l191 332 -261 453 c-144 249 -285 493 -312 541 -27
49 -56 91 -63 94 -18 6 -1178 10 -1223 3z m1138 -175 c5 -5 22 -33 38 -61 15
-28 132 -230 258 -449 127 -219 229 -404 227 -410 -2 -11 -292 -517 -466 -815
l-62 -105 -534 0 -535 0 -32 54 c-18 29 -33 55 -33 56 0 2 -63 113 -141 247
-78 133 -151 261 -164 283 -12 22 -54 95 -93 163 l-71 122 71 123 c39 67 82
143 97 168 61 106 193 335 202 349 5 8 38 67 75 130 36 63 71 124 79 135 12
20 21 21 543 20 341 0 534 -4 541 -10z"/>
</g>
</svg>
